<svg xmlns="http://www.w3.org/2000/svg" viewBox="0 0 199.3 138.94"><defs><style>.cls-1{fill:#0082ca;}.cls-2{fill:#e4f1f9;}.cls-3,.cls-4{fill:#585857;}.cls-4{fill-rule:evenodd;}</style></defs><title>Logo Colmed 2017</title><g id="Intro"><path class="cls-1" d="M84.54,1.12a3.46,3.46,0,0,1,5,0l14.13,14.46,13.69-14a3.46,3.46,0,0,1,5,0L185,65.68a3.67,3.67,0,0,1,0,5.09l-17.4,17.79a3.46,3.46,0,0,1-5,0L148.52,74.1l-13.7,14a3.48,3.48,0,0,1-5,0L103,60.66,58.11,106.53a6.94,6.94,0,0,1-10,0L2.06,59.42a7.32,7.32,0,0,1,0-10.19L48.15,2.11a6.94,6.94,0,0,1,10,0l12.73,13Z"/><path class="cls-2" d="M88.7,13a3.52,3.52,0,0,0-5.06,0l-39,39.81a3.74,3.74,0,0,0,0,5.18l4.93,5a3.55,3.55,0,0,0,5.07,0L84.83,32.14a1.86,1.86,0,0,1,2.65,0l43.18,44.14a3.52,3.52,0,0,0,5.06,0l4.93-5a3.74,3.74,0,0,0,0-5.18Z"/><path class="cls-2" d="M173.46,66.52,121.51,13.43a3.5,3.5,0,0,0-5.06,0l-4.93,5a3.72,3.72,0,0,0,0,5.18l52,53.11a3.54,3.54,0,0,0,5.06,0l4.92-5A3.73,3.73,0,0,0,173.46,66.52Z"/><path class="cls-2" d="M89.6,47a3.54,3.54,0,0,0-5.06,0l-30,30.69a1.82,1.82,0,0,1-2.62,0L30.43,55.74a2,2,0,0,1,0-2.69L60.52,22.31a3.7,3.7,0,0,0,0-5.18l-4.93-5a3.5,3.5,0,0,0-5.06,0L11.75,51.75a3.72,3.72,0,0,0,0,5.18l2.18,2.22a4,4,0,0,0,.48.63L50.68,96.84a3.5,3.5,0,0,0,5.06,0L94.53,57.19a3.73,3.73,0,0,0,0-5.17Z"/><path class="cls-3" d="M196.78,79.46a9,9,0,0,1,2.52,6.37,9,9,0,0,1-8.9,9.09,8.71,8.71,0,0,1-6.32-2.75,9.14,9.14,0,0,1-2.54-6.34,9.3,9.3,0,0,1,1.3-4.73,8.57,8.57,0,0,1,7.56-4.38,8.68,8.68,0,0,1,6.38,2.74m-11.52.92A7.75,7.75,0,0,0,183,85.81a7.54,7.54,0,0,0,2.12,5.3,7.33,7.33,0,0,0,5.27,2.31,7.55,7.55,0,0,0,5.26-2.23A7.41,7.41,0,0,0,197.84,86a7.61,7.61,0,0,0-2.11-5.46,7.18,7.18,0,0,0-5.31-2.28,7,7,0,0,0-5.16,2.16m5.33.22c2.82,0,4.21,1,4.21,2.91a2.7,2.7,0,0,1-2.16,2.68l2.21,4.51h-2.67l-1.88-4.14h-1.17V90.7h-2.4V80.6Zm-1.46,4.48h1.17c1.37,0,2-.42,2-1.43s-.71-1.49-2.15-1.49h-1.05Z"/><rect class="cls-3" x="9.46" y="118.99" width="3.78" height="19.58"/><path class="cls-4" d="M30.72,130.05c0-4.06-1.72-6.15-5-6.15a5.35,5.35,0,0,0-5,3v-2.59H17.48v14.3h3.59v-7.11c0-2.87,1.35-4.49,3.28-4.49s2.77,1.25,2.77,3.87v7.73h3.6Z"/><path class="cls-4" d="M39.44,119.61,36,120.8v3.47H33.06V127h2.76v6.49c0,3.78,1.24,5.42,4.64,5.42a10.45,10.45,0,0,0,2.49-.31l-.06-2.6a4.26,4.26,0,0,1-1.38.25c-1.52,0-2.07-.92-2.07-3V127h3.37v-2.7H39.44Z"/><path class="cls-4" d="M54.87,130.13h-6.6c.28-2.44,1.58-3.83,3.39-3.83s3,1.39,3.21,3.83m3.26,1.13c0-4.64-2.38-7.36-6.43-7.36s-6.93,2.93-6.93,7.28c0,4.85,2.78,7.76,7.46,7.76a12.19,12.19,0,0,0,4.73-.85v-2.82a8.41,8.41,0,0,1-4.11,1c-2.68,0-4.39-1.5-4.58-3.9h9.86Z"/><path class="cls-4" d="M69.55,124.06a7.69,7.69,0,0,0-1.24-.13c-1.89,0-3.26,1.07-4.14,3.18v-2.84H60.94v14.3h3.58v-6.69c0-3.1,1.31-4.71,3.66-4.71a3.77,3.77,0,0,1,1.23.2Z"/><path class="cls-4" d="M85.09,130.05c0-4.06-1.74-6.15-5-6.15a5.36,5.36,0,0,0-5,3v-2.59H71.84v14.3h3.59v-7.11c0-2.87,1.35-4.49,3.28-4.49s2.76,1.25,2.76,3.87v7.73h3.62Z"/><path class="cls-4" d="M100.61,130.42c0-4.49-1.82-6.52-6-6.52a12.71,12.71,0,0,0-4.91,1l.06,2.62a8.46,8.46,0,0,1,4-1.16c2.17,0,3.45,1.1,3.45,3.08v.19H95.32c-4.91,0-7.37,1.61-7.37,4.78a4.37,4.37,0,0,0,4.69,4.5,5.49,5.49,0,0,0,4.74-2.67l.07,2.31h3.16Zm-4.72,1.32h1.28v.76c0,2.34-1.48,3.83-3.4,3.83a2.09,2.09,0,0,1-2.29-2.11c0-1.62,1.46-2.48,4.41-2.48"/><path class="cls-4" d="M109.32,119.61l-3.44,1.19v3.47H103V127h2.76v6.49c0,3.78,1.24,5.42,4.63,5.42a10.59,10.59,0,0,0,2.5-.31l-.06-2.6a4.36,4.36,0,0,1-1.39.25c-1.51,0-2.07-.92-2.07-3V127h3.37v-2.7h-3.37Z"/><path class="cls-4" d="M115.51,121.42h3.7v-3.55h-3.7Zm0,17.15h3.59v-14.3h-3.59Z"/><path class="cls-4" d="M129.77,123.9c-4.63,0-7.43,2.82-7.43,7.5s2.84,7.54,7.43,7.54,7.45-2.86,7.45-7.54-2.8-7.5-7.45-7.5m0,2.65c2.15,0,3.68,1.87,3.68,4.83s-1.53,4.79-3.68,4.79-3.66-1.86-3.66-4.79,1.54-4.83,3.66-4.83"/><path class="cls-4" d="M153.71,130.05c0-4.06-1.74-6.15-5-6.15a5.37,5.37,0,0,0-5,3v-2.59h-3.29v14.3h3.59v-7.11c0-2.87,1.35-4.49,3.28-4.49s2.77,1.25,2.77,3.87v7.73h3.61Z"/><path class="cls-4" d="M169.24,130.42c0-4.49-1.82-6.52-6.06-6.52a12.69,12.69,0,0,0-4.89,1l.05,2.62a8.43,8.43,0,0,1,4-1.16c2.19,0,3.46,1.1,3.46,3.08v.19h-1.85c-4.91,0-7.38,1.61-7.38,4.78a4.38,4.38,0,0,0,4.7,4.5,5.52,5.52,0,0,0,4.75-2.67l.05,2.31h3.18Zm-4.72,1.32h1.27v.76c0,2.34-1.49,3.83-3.39,3.83a2.09,2.09,0,0,1-2.29-2.11c0-1.62,1.45-2.48,4.41-2.48"/><rect class="cls-3" x="172.72" y="117.47" width="3.59" height="21.1"/><path class="cls-4" d="M94.39,94a18.73,18.73,0,0,0-5.06-1c-6.45,0-10.45,4.29-10.45,10.33s3.87,10.07,10.66,10.07a19,19,0,0,0,5-1l-.32-3.09a15.73,15.73,0,0,1-4.33,1.12,6.7,6.7,0,0,1-7.1-7c0-4.4,2.7-7.31,6.92-7.31a12.38,12.38,0,0,1,4.45,1.13Z"/><path class="cls-4" d="M103.9,98.26c-4.63,0-7.41,2.81-7.41,7.49s2.81,7.54,7.41,7.54,7.45-2.85,7.45-7.54-2.81-7.49-7.45-7.49m0,2.64c2.16,0,3.68,1.87,3.68,4.83s-1.52,4.8-3.68,4.8-3.67-1.87-3.67-4.8,1.56-4.83,3.67-4.83"/><rect class="cls-3" x="114.54" y="91.83" width="3.58" height="21.1"/><path class="cls-4" d="M134.6,101.33a4.5,4.5,0,0,0-4.25-3,5.18,5.18,0,0,0-4.82,2.93V98.62h-3.27v14.3h3.58v-7.1c0-2.85,1.25-4.43,3.16-4.43,1.65,0,2.43,1.24,2.43,3.81v7.72H135v-7.1c0-2.85,1.27-4.43,3.17-4.43,1.67,0,2.41,1.24,2.41,3.81v7.72h3.59V104.4c0-4-1.74-6.12-4.67-6.12a5.28,5.28,0,0,0-4.91,3"/><path class="cls-4" d="M157.22,104.49h-6.6c.29-2.45,1.58-3.84,3.4-3.84s3,1.39,3.2,3.84m3.26,1.13c0-4.66-2.37-7.36-6.43-7.36s-6.92,2.93-6.92,7.27c0,4.86,2.78,7.76,7.45,7.76a12.48,12.48,0,0,0,4.74-.84v-2.82a8.57,8.57,0,0,1-4.12,1c-2.66,0-4.38-1.5-4.58-3.89h9.86Z"/><path class="cls-4" d="M173.06,91.82v8.94a5.27,5.27,0,0,0-4.77-2.5c-3.39,0-5.82,2.82-5.82,7.28s2.56,7.61,5.9,7.61a5.44,5.44,0,0,0,5-3.11v2.88h3.23V91.82Zm-3.58,9.2c2.14,0,3.55,1.72,3.55,4.68s-1.41,4.63-3.47,4.63-3.36-1.69-3.36-4.63,1.42-4.68,3.28-4.68"/></g></svg>